<svg id="d489ecaf-f8b5-4859-aafa-3c2723b15e90" data-name="Calque 1" xmlns="http://www.w3.org/2000/svg" viewBox="0 0 279 320"><defs><style>.cdc9fcb4-c662-4a8b-99fb-8fdc912c145c{fill:#fff;}</style></defs><title>Helena_transparence</title><path d="M293.18,283.35c-2.3-9-4.87-18-6.92-27.09-.72-3.21-.2-6.7-.37-10a12.82,12.82,0,0,0-.73-4.3c-2-4.59-3.89-9.22-6.24-13.62-8.13-15.21-20.58-24.76-37.75-27.46-8.38-1.32-17-1.31-25.27-3A91.45,91.45,0,0,1,196.19,191c-3.36-1.54-5.89-4.9-8.55-8.17l8.61,2.49-1.87,1.79c6.15,2.16,12.21,5,16.86-.26l15.16,8.69c-.63-4.06-1-6.26-1.33-8.48l9.68-1.49.6.56-4.85,3.13c6.38-.31,10-3.21,18.12-12.81,5.23-6.21,5.5-13.24,4.24-20.73,3.93,6.13,3.39,12.44.59,19.09,5-3.49,7-9.42,4.65-15.87-1.52-4.12-4.39-7.73-6.62-11.6-1.69-2.91-3.31-5.86-5-8.79l1.62-1,12.11,17.6c.26-4.11-2.39-8-5.6-11.6-7.2-8.21-7.7-10.78-2-20.31,5.47-9.18,5.69-18.54,2.62-28.36-5-16-10.53-31.9-14.87-48.1C236,30.44,226.8,17.79,213.62,7.61c-2.77-2.13-5.42-4.4-8.12-6.61h-38l-4.67,3.89c-9.47,9.83-19,19.57-28.34,29.55-2.7,2.89-4.65,6.48-6.94,9.75-7.9,11.27-19.22,18.18-31,24.6C91.2,71.71,86.07,75,80.28,78.5c6.35-9.59,17.51-11.42,25.28-18.3L92.21,66c-.2-.36-.39-.72-.58-1.08C103,59.68,114.9,55.2,122,43.85L115.76,49l-.46-.38q4.52-6.27,9-12.53l-.3-.25L107.58,52.7c-.16-.18-.31-.37-.46-.56L119.4,33.56c-.2-.22-.39-.44-.59-.65L108.09,44.76c9.72-15.08,19.54-30,35.32-39.65,2.09-1.27,4.06-2.73,6.09-4.11h-17a14.43,14.43,0,0,1-2.1,2c-13,8.06-23.09,18.9-31.7,31.42C91.82,44.39,84.32,54,77.13,63.73a27.12,27.12,0,0,0-1.87,3.39C80,61.91,84.77,56.73,89.48,51.48c1.17-1.31,2.15-2.8,3.22-4.21l1.2,1L74.79,71.83l-.87-.51c.5-1.45,1-2.9,1.49-4.35-4.27,7.55-9,14.87-12.53,22.77-1.25,2.83,0,7.27,1.2,10.56,1.71,4.62,4.21,9.06.57,13.57s-8.75,4.66-14.33,3.35L57,120.9c-3.87,4.69-7.78,9.68-7.2,16.83,2.28-4.13,4.42-8,6.57-11.93-5.12,15.2-2.53,25,8.5,29.66l-2.79-7,.52-.21,9.59,12c-1.17,1.64-2.79,3.94-5,7.1l9.85-2,5,4c-1.87-3.21-3.11-5.36-4.36-7.51,13.79,11.51,17.22,13.35,19,10.77l15.51,7.52c-3.33,3-6.68,7.1-10.95,9.66a265.74,265.74,0,0,1-27.74,14.74,63.43,63.43,0,0,1-18.61,5.13c-15.62,1.76-25.91,10-31.07,24.39-3,8.42-5,17.26-6.88,26-.59,2.68.54,5.75.91,8.63.22,1.76.81,3.54.69,5.27q-.93,13.2-2.17,26.37c-.3,3.16.87,4.72,3.83,5.88C29.67,310,39,314,48.36,317.93c2.11.89,4.1,2,6.14,3.07h5L48,312.6l.49-.83,15,9.23h199c3.52-2.92,7-5.93,10.57-8.75a162.5,162.5,0,0,1,15.14-10.74l-5,6a8.61,8.61,0,0,0,1.46-.52C296.86,298,296.89,298,293.18,283.35ZM197,197.7l16.17,6c-9.57,5.66-11.27,5.63-17.26.39C196.24,202.07,196.57,200.18,197,197.7Zm-8.17-3c-.84,2.7-1,4.87-2.1,6.38-1.95,2.7-4,6-6.81,7.25-4.2,1.92-6,4-4.1,9.06-4.77-4.1-9.21-2-14-1-2.13.43-5.37-2.41-7.48-4.43-3.66-3.49-5.06-3.7-7.2.2l-4.58-2.31-3.36-7.5-.91,1.55h-8.56c2.22-6.26,1.44-7.23-4.25-6.28-.68-1.63-1.33-3.2-2-4.76l-4.85,2.1c-.6-.9-1.41-2.1-2.11-3.16l12.58-11,4,5.33c-1.38-8.06-2.66-15.5-3.93-22.93l1.29-.63a68.73,68.73,0,0,0,5.27,5.51c4.29,3.65,8.43,7.64,13.22,10.51,8.21,4.93,18.34,3.4,26-3.12,1.64-1.4,3.17-2.92,5.44-5v27.83l2.84-10C185.21,190.53,187.37,193,188.82,194.68Zm40.8-22V160.87c-2.47,8.36-5.23,17.72-7.91,26.78-3.14-2.94-3.23-5.76.18-15.89l1.25,2.22c3.63-7.3,3.05-14.3.23-21.34-2.4-6-3.71-12-1.31-18.41-1.23,8.67,2.09,15.66,8.51,22.77l-5.29-11C234.47,156.52,235.88,165.72,229.62,172.65ZM209.49,73c3.84-.81,6.73-1.94,9.57-1.84,2.17.08,4.29,1.73,6.43,2.69-1.07,1.88-2.13,3.76-3.09,5.44Zm40.69,87.5-1.15.45-1.31-2.67c-.13,2.49-.22,4.2-.36,6.9-.88-3.09-1.48-5.2-2.09-7.31l-.53.11v15.14l-1.08.35c-.58-1-1.71-1.94-1.66-2.86.45-7.41-2.63-13.6-6.36-19.61-3.88-6.25-5.91-12.92-4.84-20.59,1.22,4.58,2.38,8.9,3.53,13.22l1.3-.23c-2.06-7.12-3.4-14.22.59-21.75v13.52h.83c.2-3.4.41-6.79.61-10.19-.26,9.14,3.11,16.8,8.27,24.15C248.18,152.32,248.82,156.66,250.18,160.49Zm4.3-49.18-6.74-26.8C251.69,93,256.25,101.38,254.48,111.31ZM222.77,20c6.55,5.5,10.44,13,12.47,21.22,2.72,10.91,4.72,22,7,33l-1.57.19q-1.24-6.55-2.5-13.11l-1.24.24c1.43,6.39,2.53,12.88,4.38,19.15,2.53,8.6,5.67,17,8.47,25.55a8.9,8.9,0,0,1,.6,4.39c-.67,3-1.83,5.82-2.65,8.31-.26-2.63-.24-6-1-9.08a66.41,66.41,0,0,0-3.68-9.78c-1.35-3.22-3-6.31-4.33-9.55-4.59-11.29-7.06-23.38-5.93-35.21,1.77-18.51-6-30.51-21.27-39.09a2.53,2.53,0,0,1-.68-.7,13.35,13.35,0,0,1-.32-2.18C215.25,15.81,219.54,17.25,222.77,20Zm-26.7-2.64L200.85,14C218.21,26.65,228,44,226.06,67c-6.91-4.34-16.43-2.72-23.11,2.09-10.87,7.82-9.8,18.29-8.07,29.23.28,1.81.78,3.58,1.14,5.38,1.26,6.21-1.6,8.87-7.7,7-4.41-1.38-8.71-3.56-14.17-.69.59-2.53,1.17-5,1.76-7.58l-1.08-.34c-.89,2.63-2.43,5.23-2.49,7.88-.08,3.15,2.43,3.38,6.27,3.6,2.43.14,4.7,3,7,4.6l-.45,2.27c3.09-.86,6.4-1.26,9.2-2.68,4.41-2.24,4.62-6.28,3.73-10.78-1.09-5.54-1.5-11.21-2.46-16.78-1.14-6.57,2.88-9.79,7.77-12.41,5.18-2.78,10.05-1.88,15.48,2-11.93-3.25-16.31-2.08-21.53,5.64l4.65-.54c4.08,5,7.4,4.7,12.31-1.88.16,1.7,1,4.56.36,4.89-2.09,1.16-4.67,1.45-6.83,2,2.76,4.11,6.72,3.13,11,.55,3.74,7,3,14.07-.18,20.26-6.17,11.94-12.92,23.62-20.15,34.95-3,4.65-7.63,8.32-11.88,12-5.6,4.9-12.29,5-18.82,2.46-13-5-23.61-13.41-32.59-24.05-5.17-6.12-6.49-13.31-6.86-20.88-.17-3.64,0-7.3,0-11.11,6-1.6,7.07,3.76,9.29,6.12-1.32-6.4-4.77-13.68-3.59-20.11s7-11.9,10.4-17.2c5.33,3.3,9.12,6.92,13.56,8.07,4.82,1.25,6.87-3.83,9.68-8.24l3.92,5.36-1,.91,4.1.9c2.94-2.43-7.07-11.83-13.16-12.63a37.61,37.61,0,0,1-4.78-.6c7.73-2.32,13.43.86,18.16,7.22a12.26,12.26,0,0,0-9.9-9.74,28.25,28.25,0,0,0-6.94-.41c-2.24.1-4.25.16-3.85-2.87.33-2.59,1.46-4.11,4.66-3.66,9.25,1.29,14.17,7.91,19.12,14.73.94,1.29,2.84,1.89,4.47,2.92.68-3.78,1.54-6.31,1.44-8.81-.08-2-.79-4.85-2.17-5.61-7.31-4-14.92-7.51-23-11.46,5-9.69,9.36-21.25,20.48-28.15,5.35-3.31,10.9-4.83,17.73-1.31C196.43,18.14,196.13,17.44,196.07,17.32ZM139.71,53.19c-3.73,6.6-9.7,10.47-17.13,14.17l16.68-14.61q1.13-2.05,2.27-4.11c-7.29,7.48-15.35,13.46-25.66,16.25,18.41-7.8,27.73-23.83,36.88-40l-.17.16a30.94,30.94,0,0,0-2.85,2.75c-5.45,6.63-10.85,13.3-16.49,19.78,6.57-12.94,12.18-26.52,25.28-36L156.47,16l4.23-3.16L152.58,25l13.54-13.57.37.3-7.71,8.69c7.41-6.71,15.45-11.69,26.07-11.23-15.53,3.06-20.9,15.17-25.78,28-2.26,5.93-6.16,11.31-7.89,17.34C145.55,74.23,128.74,81,112.24,88.36L119.16,82l-.85-1.08c-4.84,4-9.67,8-14.54,12-1.12.92-2.37,1.67-3.56,2.5l-1.5-1.52L106.82,81,100,86.29l-.81-1c3.79-3,7.39-6.24,11.42-8.86,7.38-4.79,15.24-8.87,22.43-13.92,3.8-2.67,6.6-6.77,9-11.1ZM71.58,80.4c-5.6,7.47-4.11,15.54-2.23,23.65C63.45,95.91,64.09,88.3,71.58,80.4Zm-9.29,49.72-.77-.59,3-4.53a.74.74,0,0,1,0-.14l-.1.08.11-.12c.38-1.46.76-2.95,1.25-4.82L59,125c-.21-.28-.43-.55-.65-.83,4.73-3.92,9.93-7.41,14.06-11.88s7-9.77,10.85-14.77c-2.12,4.44-3.7,9.25-6.5,13.21A74.18,74.18,0,0,1,70.84,118c-.94,1-1.9,2.08-2.86,3.12-.61.66-1.22,1.31-1.81,2s-1,1.15-1.56,1.73a.06.06,0,0,0,0,0c4.12-3.23,8.22-6.48,12.34-9.72l.54.49ZM75.7,148.91l-1.44,0-2.7-10.9-1.46,5.89-1.17-.26,2.8-14.12-1.61.69-.43-.52a64.64,64.64,0,0,1,4.9-5.4c8.34-7.39,12.41-16.63,12.9-27.7C87.92,87,91.75,79,99.8,73.16c-6.51,7.12-10.72,15.13-10.21,26,.74-1.45,1.15-2.11,1.42-2.83.34-.89.57-1.84.93-3,1.7,13.72-4.42,24-13,33.71l6.68-3.74.38.35-7,6.47.9,1,4.38-2.8C79,134.05,73.73,139.87,75.7,148.91Zm9.6,11.34c-1-2-2.41-4-2.77-6.1C81,145.25,81.1,136.68,89,130.22c7.3-6,11.9-13.35,11.66-23.17,4.11,9.06-.49,15.77-5.34,22.82l8.78-9.68a26.14,26.14,0,0,1-8.72,16.92c-3.76,3.41-6.17,8.3-9.8,13.39L90.74,137C83.57,141,82,147.3,85.3,160.25Zm22.94-11.95c-4.58,6-4.34,10.66-.25,19.34-5.71-3.46-6.86-7.39-5.91-20.24-3.61,5-4.19,9.28-2.72,19.83l-1.58.52q-2.06-8.38-4.09-16.78l1.42-.35,1.08,6.23c0-8,4-14,9-19.53a21,21,0,0,0,5.62-18.39c-1.45-9.13-.81-18,5-25.64a25.56,25.56,0,0,1,7.87-6.24c-6.29,8-10.38,16.36-7.76,27.52.85-4.61,1.56-8.52,2.28-12.42-1.71,10.81,6.78,21.09,1.53,32.64.21-3.83.37-6.93.54-10l-1.33-.33C119.36,134.3,113.68,141.17,108.24,148.3ZM86.7,252.08c-5.7-3.24-11.3-6.69-17.13-9.67-8-4.06-16-8-24.24-11.51-3.18-1.36-4.66-3-3.82-6.21.87-3.38,2.07-6.66,6.38-7a7.26,7.26,0,0,0,3-.64c6.18-3.74,11.18-3.73,16.81.79,2.81,2.26,5.72,4.83,7.46,7.9C79.86,234,83.94,242.56,88.25,251Zm175.19-27.75c-18,18.66-36,37.43-53.58,56.55-6.37,6.95-11.56,15-17.81,23.2-3.46-5.11-6.86-9.94-10.05-14.91-3.39-5.27-6.57-10.66-10.52-15.69,5.06,11.07,9.74,22.14,10.84,35.41-2.1-1.65-3.61-2.73-5-3.94-15.8-13.64-34.1-23.11-52.72-32.13-5.17-2.51-10-5.74-15-8.64l-.16,0c-8-3.56-15.52-6.85-18.32-17-3.47-12.66-9.22-24.63-19.69-33.55A248.65,248.65,0,0,0,108.71,194c1.57-1,4.76.61,8,1.14-3.23,4.2-6.11,7.39,0,9.44.3.1.5.75.6,1.17,1.53,6.2,2.85,6.67,8.29,2.1l2.61,2.74c-1.26,1.71-2.1,2.83-3.43,4.62l6.49,1.59,4.83,7.18c1.37-2.94,2.19-4.68,3.17-6.79l4,1.09c-2.63,3.21-.52,4.14,1.88,5.6,1.73,1.05,2.75,3.26,4.34,5.27,3.59-3.47,7.5-3.54,11.36-.36a6.11,6.11,0,0,1,2,2.52c1.81,5.31,6.37,7.84,11.16,12.22,2.26-7.59,4.16-14,6.22-20.9l4.13,4.41,8.11-7.09-3.36-3.86c10.27-6.1,21.72-8.09,32.8-10.44,14.65-3.1,28.48-.61,39.71,10.64C264.54,219.19,265.12,221,261.89,224.33Z" transform="translate(-16.34 -1)"/><path d="M162.83,4.89c-7.52,5.33-15.05,10.64-22.54,16a60.84,60.84,0,0,1-8.24,5.49C139,15.43,149.48,8.48,159.5,1h8Z" transform="translate(-16.34 -1)"/><path d="M155.5,1,138.27,12.27,137.44,11,153.5,1Z" transform="translate(-16.34 -1)"/><path class="cdc9fcb4-c662-4a8b-99fb-8fdc912c145c" d="M59.5,321,48,312.6l.49-.83,15,9.23Z" transform="translate(-16.34 -1)"/><path d="M158.17,273.17c-1.21-2.57-1.67-5.61-3.27-7.86a141.36,141.36,0,0,0-9.65-11.44c-.62-.71-1.71-1.59-2.46-1.49-4.77.67-3.53-2.46-4.06-5.23-.4-2.08-3.57-5.62-4.15-5.37-3.76,1.61-4.65-1.27-6.22-3.16-2.55-3.07-5.25-6.06-7.53-9.32-1.27-1.82-1.83-4.13-2.7-6.22.66-.82,0-1.24-.26-1.07-5.4,3-8.17,1.33-9.52-4.6-.26-1.15-3.59-2.43-5.29-2.19-1.41.21-3.45,2.56-3.49,4,0,1.64,1.63,3.53,3,4.91.74.77,2.32.73,3.56,1.07-2.31,4.84-12.48,5.14-8,12.64-1.56,1.24-3.59,2.09-4.33,3.58-2.1,4.22,2.6,11.24,7.64,11.48,2.8.14,5.4,1.22,4,3.84-2.17,4,.61,5.34,2.54,7.41l.16,0c3.67-.95,7.65-1.29,10.92-3,4.76-2.47,9-5.92,14.09-9.37,1,2.19,1.95,3.79,2.6,5.5.26.69-.37,1.87,0,2.36,3.61,4.55,6.93,9.47,11.17,13.36s9.32,6.56,14,9.78l3.24,2.2C161.86,280.5,159.91,276.89,158.17,273.17ZM120.5,252.55c-.15.08-.71-.3-.87-.59-2.14-3.91-6.75-6.36-6.94-11.41l8.9,11.2A6.09,6.09,0,0,1,120.5,252.55Zm7.43-5.65c-4.71-6-11.56-10.18-13.63-17.55l1.71-1c4.14,4.53,8.4,9,12.3,13.68C129.15,243,128.71,245.1,127.93,246.9Z" transform="translate(-16.34 -1)"/><path d="M120.32,214l-31.91-2C99.26,211.07,110,209.61,120.32,214Z" transform="translate(-16.34 -1)"/><path d="M156.57,124.56c8.75,4.42,17.86-2.65,26.59,2.15,6.49-2.18,10.12,3.18,14.86,5.62-3.32,2.19-6.37,5.09-10,6.4-7.46,2.69-14.38.46-20.57-4.17-3.69-2.77-7.3-5.65-10.94-8.48Z" transform="translate(-16.34 -1)"/><path d="M186,141.55c-5.88,2.95-11.7,2-17.06-2.78Z" transform="translate(-16.34 -1)"/><path d="M144.28,185.35l9.12,18.78-1.09.52q-4.6-9.36-9.23-18.72Z" transform="translate(-16.34 -1)"/><path d="M112.16,135.09,113,120h.26v15.19Z" transform="translate(-16.34 -1)"/></svg>