<svg id="d3831d5f-022f-4eb3-ad40-7b6057ce0bf0" data-name="Calque 1" xmlns="http://www.w3.org/2000/svg" viewBox="0 0 319.97 320"><defs><style>.bdd62068-17bd-4c05-9d44-7147de7568fb{fill:#fff;}</style></defs><title>Helena3</title><path d="M108,166H-91l-15-9.23-.49.83L-95,166h-5c-2-1-4-2.18-6.14-3.07-9.35-3.93-18.69-7.92-28.14-11.61-3-1.16-4.13-2.72-3.83-5.88q1.26-13.17,2.17-26.37c.12-1.73-.47-3.51-.69-5.27-.37-2.88-1.5-6-.91-8.63,1.91-8.77,3.86-17.61,6.88-26,5.16-14.39,15.45-22.63,31.07-24.39A63.43,63.43,0,0,0-81,49.62,265.74,265.74,0,0,0-53.24,34.88c4.27-2.56,7.62-6.65,11-9.66L-57.8,17.7c-1.81,2.58-5.24.74-19-10.77,1.25,2.15,2.49,4.3,4.36,7.51l-5-4-9.85,2c2.23-3.16,3.85-5.46,5-7.1l-9.59-12-.52.21,2.79,7c-11-4.63-13.62-14.46-8.5-29.66-2.15,3.9-4.29,7.8-6.57,11.93-.58-7.15,3.33-12.14,7.2-16.83l-6.71-3.68c5.58,1.31,10.6,1.27,14.33-3.35s1.14-8.95-.57-13.57c-1.22-3.29-2.45-7.73-1.2-10.56,3.48-7.9,8.26-15.22,12.53-22.77-.49,1.45-1,2.9-1.49,4.35l.87.51,19.11-23.6-1.2-1c-1.07,1.41-2.05,2.9-3.22,4.21-4.71,5.25-9.48,10.43-14.22,15.64a27.12,27.12,0,0,1,1.87-3.39c7.19-9.78,14.69-19.34,21.57-29.34C-47.19-133.13-37.06-144-24.1-152a14.43,14.43,0,0,0,2.1-2H-5c-2,1.38-4,2.84-6.09,4.11-15.78,9.61-25.6,24.57-35.32,39.65l10.72-11.85.59.65-12.28,18.58.46.56,16.46-16.86.3.25q-4.53,6.25-9,12.53l.46.38,6.23-5.15c-7.09,11.35-19,15.83-30.36,21.06l.58,1.08,13.35-5.79c-7.77,6.88-18.93,8.71-25.28,18.3,5.79-3.47,10.92-6.79,16.28-9.71,11.77-6.42,23.09-13.33,31-24.6,2.29-3.27,4.24-6.86,6.94-9.75,9.31-10,18.87-19.72,28.34-29.55L13-154H51c2.7,2.21,5.35,4.48,8.12,6.61,13.18,10.18,22.38,22.83,26.77,39.23,4.34,16.2,9.86,32.08,14.87,48.1,3.07,9.82,2.85,19.18-2.62,28.36-5.69,9.53-5.19,12.1,2,20.31,3.21,3.65,5.86,7.49,5.6,11.6L93.64-17.39l-1.62,1c1.65,2.93,3.27,5.88,5,8.79,2.23,3.87,5.1,7.48,6.62,11.6C106,10.43,104,16.36,99,19.85c2.8-6.65,3.34-13-.59-19.09,1.26,7.49,1,14.52-4.24,20.73C86,31.09,82.38,34,76,34.3l4.85-3.13-.6-.56L70.57,32.1c.35,2.22.7,4.42,1.33,8.48L56.74,31.89c-4.65,5.3-10.71,2.42-16.86.26l1.87-1.79-8.61-2.49c2.66,3.27,5.19,6.63,8.55,8.17A91.45,91.45,0,0,0,61.4,42.85c8.28,1.67,16.89,1.66,25.27,3,17.17,2.7,29.62,12.25,37.75,27.46,2.35,4.4,4.28,9,6.24,13.62a12.82,12.82,0,0,1,.73,4.3c.17,3.35-.35,6.84.37,10.05,2.05,9.09,4.62,18.06,6.92,27.09C142.39,143,142.36,143,130.15,152a8.61,8.61,0,0,1-1.46.52l5-6a162.5,162.5,0,0,0-15.14,10.74C115,160.07,111.52,163.08,108,166ZM-89.94-30l-3,4.53.77.59L-77-39.37l-.54-.49L-90-30.06c4.14-4.69,8.69-9.08,12.27-14.17,2.8-4,4.38-8.77,6.5-13.21-3.83,5-6.8,10.39-10.85,14.77s-9.33,8-14.06,11.88l.65.83,6.85-5C-89.15-33-89.54-31.52-89.94-30Zm88-100L6.2-142.13,2-139,4-143.45c-13.1,9.49-18.71,23.07-25.28,36,5.64-6.48,11-13.15,16.49-19.78a36.17,36.17,0,0,1,3-2.91c-9.15,16.19-18.47,32.22-36.88,40C-28.32-92.9-20.26-98.88-13-106.36q-1.14,2.06-2.27,4.11L-31.92-87.64c7.43-3.7,13.4-7.57,17.13-14.17l2.39-1.8c-2.43,4.33-5.23,8.43-9,11.1-7.19,5.05-15,9.13-22.43,13.92-4,2.62-7.63,5.89-11.42,8.86l.81,1L-47.68-74l-8.11,12.86,1.5,1.52c1.19-.83,2.44-1.58,3.56-2.5,4.87-4,9.7-8,14.54-12l.85,1.08-6.92,6.41C-25.76-74-8.95-80.77-3.32-100.49c1.73-6,5.63-11.41,7.89-17.34,4.88-12.78,10.25-24.89,25.78-27.95-10.62-.46-18.66,4.52-26.07,11.23L12-143.24l-.37-.3ZM-46.56,109.15l.16,0c5,2.9,9.78,6.13,15,8.64,18.62,9,36.92,18.49,52.72,32.13,1.39,1.21,2.9,2.29,5,3.94-1.1-13.27-5.78-24.34-10.84-35.41,3.95,5,7.13,10.42,10.52,15.69,3.19,5,6.59,9.8,10.05,14.91,6.25-8.22,11.44-16.25,17.81-23.2C71.37,106.76,89.34,88,107.39,69.33c3.23-3.34,2.65-5.14-.21-8C96,50.07,82.12,47.58,67.47,50.68,56.39,53,44.94,55,34.67,61.12L38,65l-8.11,7.09-4.13-4.41c-2.06,6.91-4,13.31-6.22,20.9-4.79-4.38-9.35-6.91-11.16-12.22a6.11,6.11,0,0,0-2-2.52c-3.86-3.18-7.77-3.11-11.36.36-1.59-2-2.61-4.22-4.34-5.27-2.4-1.46-4.51-2.39-1.88-5.6l-4-1.09c-1,2.11-1.8,3.85-3.17,6.79l-4.83-7.18-6.49-1.59c1.33-1.79,2.17-2.91,3.43-4.62l-2.61-2.74c-5.44,4.57-6.76,4.1-8.29-2.1-.1-.42-.3-1.07-.6-1.17-6.12-2-3.24-5.24,0-9.44-3.27-.53-6.46-2.13-8-1.14A248.65,248.65,0,0,1-84.57,58.56c10.47,8.92,16.22,20.89,19.69,33.55C-62.08,102.3-54.6,105.59-46.56,109.15ZM71.56-88c1.92-23.06-7.85-40.39-25.21-53l-4.78,3.32c-.06-.16.22.51,1,2.19-6.83-3.52-12.38-2-17.73,1.31C13.67-127.28,9.32-115.72,4.31-106c8.09,4,15.7,7.43,23,11.46,1.38.76,2.09,3.66,2.17,5.61.1,2.5-.76,5-1.44,8.81-1.63-1-3.53-1.63-4.47-2.92C18.63-89.89,13.71-96.51,4.46-97.8,1.26-98.25.13-96.73-.2-94.14c-.4,3,1.61,3,3.85,2.87a28.25,28.25,0,0,1,6.94.41,12.26,12.26,0,0,1,9.9,9.74c-4.73-6.36-10.43-9.54-18.16-7.22a37.61,37.61,0,0,0,4.78.6c6.09.8,16.1,10.2,13.16,12.63l-4.1-.9,1-.91-3.92-5.36C10.43-77.87,8.38-72.79,3.56-74-.88-75.19-4.67-78.81-10-82.11c-3.4,5.3-9.24,10.82-10.4,17.2s2.27,13.71,3.59,20.11C-19-47.16-20-52.52-26.1-50.92c0,3.81-.14,7.47,0,11.11.37,7.57,1.69,14.76,6.86,20.88,9,10.64,19.6,19,32.59,24.05C19.91,7.64,26.6,7.56,32.2,2.66c4.25-3.71,8.91-7.38,11.88-12,7.23-11.33,14-23,20.15-34.95,3.2-6.19,3.92-13.22.18-20.26-4.31,2.58-8.27,3.56-11-.55,2.16-.55,4.74-.84,6.83-2,.6-.33-.2-3.19-.36-4.89-4.91,6.58-8.23,6.91-12.31,1.88l-4.65.54c5.22-7.72,9.6-8.89,21.53-5.64-5.43-3.83-10.3-4.73-15.48-2-4.89,2.62-8.91,5.84-7.77,12.41,1,5.57,1.37,11.24,2.46,16.78.89,4.5.68,8.54-3.73,10.78-2.8,1.42-6.11,1.82-9.2,2.68l.45-2.27c-2.34-1.62-4.61-4.46-7-4.6-3.84-.22-6.35-.45-6.27-3.6.06-2.65,1.6-5.25,2.49-7.88l1.08.34c-.59,2.53-1.17,5-1.76,7.58,5.46-2.87,9.76-.69,14.17.69,6.1,1.89,9-.77,7.7-7-.36-1.8-.86-3.57-1.14-5.38C38.65-67.58,37.58-78,48.45-85.87,55.13-90.68,64.65-92.3,71.56-88ZM-12,54.82l4.58,2.31c2.14-3.9,3.54-3.69,7.2-.2,2.11,2,5.35,4.86,7.48,4.43,4.82-1,9.26-3.09,14,1-1.91-5.07-.1-7.14,4.1-9.06,2.81-1.29,4.86-4.55,6.81-7.25,1.08-1.51,1.26-3.68,2.1-6.38-1.45-1.68-3.61-4.15-5.64-6.49l-2.84,10V15.4c-2.27,2.12-3.8,3.64-5.44,5-7.64,6.52-17.77,8-26,3.12-4.79-2.87-8.93-6.86-13.22-10.51a68.73,68.73,0,0,1-5.27-5.51l-1.29.63C-24.09,15.6-22.81,23-21.43,31.1l-4-5.33L-38,36.77l2.11,3.16,4.85-2.1c.66,1.56,1.31,3.13,2,4.76,5.69-1,6.47,0,4.25,6.28h8.56l.91-1.55ZM-67.8,97.08-66.25,96C-70.56,87.56-74.64,79-79.32,70.7c-1.74-3.07-4.65-5.64-7.46-7.9-5.63-4.52-10.63-4.53-16.81-.79a7.26,7.26,0,0,1-3,.64c-4.31.38-5.51,3.66-6.38,7-.84,3.22.64,4.85,3.82,6.21,8.22,3.51,16.27,7.45,24.24,11.51C-79.1,90.39-73.5,93.84-67.8,97.08Zm11.08-84.33,1.58-.52C-56.61,1.68-56-2.57-52.42-7.6c-.95,12.85.2,16.78,5.91,20.24C-50.6,4-50.84-.7-46.26-6.7c5.44-7.13,11.12-14,10.75-23.87l1.33.33c-.17,3.1-.33,6.2-.54,10C-29.47-31.76-38-42-36.25-52.85c-.72,3.9-1.43,7.81-2.28,12.42-2.62-11.16,1.47-19.52,7.76-27.52a25.56,25.56,0,0,0-7.87,6.24c-5.81,7.65-6.45,16.51-5,25.64a21,21,0,0,1-5.62,18.39c-5.07,5.51-9,11.48-9.05,19.53l-1.08-6.23L-60.81-4Q-58.77,4.35-56.72,12.75ZM86.2-80.62l1.57-.19c-2.31-11-4.31-22.1-7-33-2-8.18-5.92-15.72-12.47-21.22-3.23-2.71-7.52-4.15-12.22-6.64a13.35,13.35,0,0,0,.32,2.18,2.53,2.53,0,0,0,.68.7c15.28,8.58,23,20.58,21.27,39.09-1.13,11.83,1.34,23.92,5.93,35.21,1.32,3.24,3,6.33,4.33,9.55a66.41,66.41,0,0,1,3.68,9.78c.76,3.13.74,6.45,1,9.08.82-2.49,2-5.35,2.65-8.31a8.9,8.9,0,0,0-.6-4.39c-2.8-8.52-5.94-16.95-8.47-25.55-1.85-6.27-3-12.76-4.38-19.15l1.24-.24Q84.95-87.17,86.2-80.62ZM-80.24-6l1.44,0c-2-9,3.25-14.86,8.62-20.66l-4.38,2.8-.9-1,7-6.47-.38-.35L-75.52-28c8.54-9.67,14.66-20,13-33.71-.36,1.18-.59,2.13-.93,3-.27.72-.68,1.38-1.42,2.83-.51-10.85,3.7-18.86,10.21-26C-62.75-76-66.58-68-67-58.37c-.49,11.07-4.56,20.31-12.9,27.7a64.64,64.64,0,0,0-4.9,5.4l.43.52,1.61-.69-2.8,14.12,1.17.26,1.46-5.89ZM76.3-24.6c-1.07,7.67,1,14.34,4.84,20.59C84.87,2,88,8.19,87.5,15.6c0,.92,1.08,1.91,1.66,2.86l1.08-.35V3l.53-.11C91.38,5,92,7.08,92.86,10.17c.14-2.7.23-4.41.36-6.9l1.31,2.67,1.15-.45c-1.36-3.83-2-8.17-4.25-11.38-5.16-7.35-8.53-15-8.27-24.15-.2,3.4-.41,6.79-.61,10.19h-.83V-33.36c-4,7.53-2.65,14.63-.59,21.75l-1.3.23C78.68-15.7,77.52-20,76.3-24.6ZM-69.2,5.25C-72.48-7.7-70.93-14-63.76-18L-68.93-4.5c3.63-5.09,6-10,9.8-13.39a26.14,26.14,0,0,0,8.72-16.92l-8.78,9.68c4.85-7,9.45-13.76,5.34-22.82.24,9.82-4.36,17.2-11.66,23.17-7.89,6.46-8,15-6.46,23.93C-71.61,1.28-70.15,3.22-69.2,5.25ZM67.39,16.76c-3.41,10.13-3.32,13-.18,15.89,2.68-9.06,5.44-18.42,7.91-26.78V17.65C81.38,10.72,80,1.52,70.78-9L76.07,2c-6.42-7.11-9.74-14.1-8.51-22.77-2.4,6.4-1.09,12.45,1.31,18.41,2.82,7,3.4,14-.23,21.34ZM58.66,48.67l-16.17-6c-.42,2.48-.75,4.37-1.09,6.36C47.39,54.3,49.09,54.33,58.66,48.67ZM67.9-75.72,71-81.16c-2.14-1-4.26-2.61-6.43-2.69-2.84-.1-5.73,1-9.57,1.84ZM-82.92-74.6c-7.49,7.9-8.13,15.51-2.23,23.65C-87-59.06-88.52-67.13-82.92-74.6ZM93.24-70.49,100-43.69C101.75-53.62,97.19-62,93.24-70.49Z" transform="translate(153.97 154)"/><path class="bdd62068-17bd-4c05-9d44-7147de7568fb" d="M108,166c3.52-2.92,7-5.93,10.57-8.75a162.5,162.5,0,0,1,15.14-10.74l-5,6a8.61,8.61,0,0,0,1.46-.52c12.21-9,12.24-9,8.53-23.63-2.3-9-4.87-18-6.92-27.09-.72-3.21-.2-6.7-.37-10.05a12.82,12.82,0,0,0-.73-4.3c-2-4.59-3.89-9.22-6.24-13.62-8.13-15.21-20.58-24.76-37.75-27.46-8.38-1.32-17-1.31-25.27-3A91.45,91.45,0,0,1,41.69,36c-3.36-1.54-5.89-4.9-8.55-8.17l8.61,2.49-1.87,1.79c6.15,2.16,12.21,5,16.86-.26L71.9,40.58c-.63-4.06-1-6.26-1.33-8.48l9.68-1.49.6.56L76,34.3c6.38-.31,10-3.21,18.12-12.81,5.23-6.21,5.5-13.24,4.24-20.73,3.93,6.13,3.39,12.44.59,19.09,5-3.49,7-9.42,4.65-15.87C102.08-.14,99.21-3.75,97-7.62c-1.69-2.91-3.31-5.86-5-8.79l1.62-1L105.75.21c.26-4.11-2.39-7.95-5.6-11.6-7.2-8.21-7.7-10.78-2-20.31,5.47-9.18,5.69-18.54,2.62-28.36-5-16-10.53-31.9-14.87-48.1-4.39-16.4-13.59-29.05-26.77-39.23-2.77-2.13-5.42-4.4-8.12-6.61H166V166Z" transform="translate(153.97 154)"/><path class="bdd62068-17bd-4c05-9d44-7147de7568fb" d="M-79.09-88c-4.27,7.55-9,14.87-12.53,22.77-1.25,2.83,0,7.27,1.2,10.56,1.71,4.62,4.21,9.06.57,13.57s-8.75,4.66-14.33,3.35l6.71,3.68c-3.87,4.69-7.78,9.68-7.2,16.83,2.28-4.13,4.42-8,6.57-11.93-5.12,15.2-2.53,25,8.5,29.66l-2.79-7,.52-.21,9.59,12c-1.17,1.64-2.79,3.94-5,7.1l9.85-2,5,4c-1.87-3.21-3.11-5.36-4.36-7.51C-63,18.44-59.61,20.28-57.8,17.7l15.51,7.52c-3.33,3-6.68,7.1-11,9.66A265.74,265.74,0,0,1-81,49.62a63.43,63.43,0,0,1-18.61,5.13c-15.62,1.76-25.91,10-31.07,24.39-3,8.42-5,17.26-6.88,26-.59,2.68.54,5.75.91,8.63.22,1.76.81,3.54.69,5.27q-.93,13.2-2.17,26.37c-.3,3.16.87,4.72,3.83,5.88,9.45,3.69,18.79,7.68,28.14,11.61,2.11.89,4.1,2,6.14,3.07h-54V-154H-22a14.43,14.43,0,0,1-2.1,2c-13,8.06-23.09,18.9-31.7,31.42-6.88,10-14.38,19.56-21.57,29.34a27.12,27.12,0,0,0-1.87,3.39Z" transform="translate(153.97 154)"/><path class="bdd62068-17bd-4c05-9d44-7147de7568fb" d="M8.33-150.11c-9.47,9.83-19,19.57-28.34,29.55-2.7,2.89-4.65,6.48-6.94,9.75-7.9,11.27-19.22,18.18-31,24.6C-63.3-83.29-68.43-80-74.22-76.5c6.35-9.59,17.51-11.42,25.28-18.3L-62.29-89l-.58-1.08c11.37-5.23,23.27-9.71,30.36-21.06L-38.74-106l-.46-.38q4.52-6.27,9-12.53l-.3-.25L-46.92-102.3l-.46-.56,12.28-18.58-.59-.65-10.72,11.85c9.72-15.08,19.54-30,35.32-39.65C-9-151.16-7-152.62-5-154h4l-16.06,10,.83,1.29L1-154H5c-10,7.48-20.54,14.43-27.45,25.39a60.84,60.84,0,0,0,8.24-5.49C-6.72-139.47.81-144.78,8.33-150.11Z" transform="translate(153.97 154)"/><path d="M8.33-150.11c-7.52,5.33-15,10.64-22.54,16a60.84,60.84,0,0,1-8.24,5.49C-15.54-139.57-5-146.52,5-154h8Z" transform="translate(153.97 154)"/><path d="M1-154l-17.23,11.27-.83-1.29L-1-154Z" transform="translate(153.97 154)"/><path class="bdd62068-17bd-4c05-9d44-7147de7568fb" d="M-95,166l-11.46-8.4.49-.83L-91,166Z" transform="translate(153.97 154)"/><path class="bdd62068-17bd-4c05-9d44-7147de7568fb" d="M-46.56,109.15c-8-3.56-15.52-6.85-18.32-17-3.47-12.66-9.22-24.63-19.69-33.55A248.65,248.65,0,0,0-45.79,39c1.57-1,4.76.61,8,1.14-3.23,4.2-6.11,7.39,0,9.44.3.1.5.75.6,1.17,1.53,6.2,2.85,6.67,8.29,2.1l2.61,2.74c-1.26,1.71-2.1,2.83-3.43,4.62l6.49,1.59L-18.36,69c1.37-2.94,2.19-4.68,3.17-6.79l4,1.09c-2.63,3.21-.52,4.14,1.88,5.6,1.73,1,2.75,3.26,4.34,5.27,3.59-3.47,7.5-3.54,11.36-.36a6.11,6.11,0,0,1,2,2.52c1.81,5.31,6.37,7.84,11.16,12.22,2.26-7.59,4.16-14,6.22-20.9l4.13,4.41L38,65l-3.36-3.86C44.94,55,56.39,53,67.47,50.68c14.65-3.1,28.48-.61,39.71,10.64,2.86,2.87,3.44,4.67.21,8-18,18.66-36,37.43-53.58,56.55-6.37,7-11.56,15-17.81,23.2-3.46-5.11-6.86-9.94-10-14.91-3.39-5.27-6.57-10.66-10.52-15.69,5.06,11.07,9.74,22.14,10.84,35.41-2.1-1.65-3.61-2.73-5-3.94-15.8-13.64-34.1-23.11-52.72-32.13-5.17-2.51-10-5.74-14.95-8.64,3.67-1,7.65-1.29,10.92-3,4.76-2.47,9-5.92,14.09-9.37,1.05,2.19,1.95,3.79,2.6,5.5.26.69-.37,1.87,0,2.36,3.61,4.55,6.93,9.47,11.17,13.36s9.32,6.56,14,9.78L9.67,130c-2.31-4.52-4.26-8.13-6-11.85C2.46,115.6,2,112.56.4,110.31A141.36,141.36,0,0,0-9.25,98.87c-.62-.71-1.71-1.59-2.46-1.49-4.77.67-3.53-2.46-4.06-5.23-.4-2.08-3.57-5.62-4.15-5.37-3.76,1.61-4.65-1.27-6.22-3.16-2.55-3.07-5.25-6.06-7.53-9.32-1.27-1.82-1.83-4.13-2.7-6.22.66-.82,0-1.24-.26-1.07-5.4,3-8.17,1.33-9.52-4.6-.26-1.15-3.59-2.43-5.29-2.19-1.41.21-3.45,2.56-3.49,4,0,1.64,1.63,3.53,3,4.91.74.77,2.32.73,3.56,1.07-2.31,4.84-12.48,5.14-8,12.64C-58,84.08-60,84.93-60.74,86.42c-2.1,4.22,2.6,11.24,7.64,11.48,2.8.14,5.4,1.22,4,3.84C-51.27,105.77-48.49,107.08-46.56,109.15ZM-66.09,57l31.91,2C-44.5,54.61-55.24,56.07-66.09,57Z" transform="translate(153.97 154)"/><path class="bdd62068-17bd-4c05-9d44-7147de7568fb" d="M71.56-88c-6.91-4.34-16.43-2.72-23.11,2.09C37.58-78,38.65-67.58,40.38-56.64c.28,1.81.78,3.58,1.14,5.38,1.26,6.21-1.6,8.87-7.7,7-4.41-1.38-8.71-3.56-14.17-.69.59-2.53,1.17-5.05,1.76-7.58l-1.08-.34c-.89,2.63-2.43,5.23-2.49,7.88-.08,3.15,2.43,3.38,6.27,3.6,2.43.14,4.7,3,7,4.6l-.45,2.27c3.09-.86,6.4-1.26,9.2-2.68,4.41-2.24,4.62-6.28,3.73-10.78-1.09-5.54-1.5-11.21-2.46-16.78-1.14-6.57,2.88-9.79,7.77-12.41,5.18-2.78,10.05-1.88,15.48,2-11.93-3.25-16.31-2.08-21.53,5.64l4.65-.54c4.08,5,7.4,4.7,12.31-1.88.16,1.7,1,4.56.36,4.89-2.09,1.16-4.67,1.45-6.83,2,2.76,4.11,6.72,3.13,11,.55,3.74,7,3,14.07-.18,20.26-6.17,11.94-12.92,23.62-20.15,35-3,4.65-7.63,8.32-11.88,12-5.6,4.9-12.29,5-18.82,2.46-13-5-23.61-13.41-32.59-24C-24.38-25-25.7-32.24-26.07-39.81c-.17-3.64,0-7.3,0-11.11,6.05-1.6,7.07,3.76,9.29,6.12-1.32-6.4-4.77-13.68-3.59-20.11s7-11.9,10.4-17.2C-4.67-78.81-.88-75.19,3.56-74c4.82,1.25,6.87-3.83,9.68-8.24l3.92,5.36-1,.91,4.1.9c2.94-2.43-7.07-11.83-13.16-12.63a37.61,37.61,0,0,1-4.78-.6c7.73-2.32,13.43.86,18.16,7.22a12.26,12.26,0,0,0-9.9-9.74,28.25,28.25,0,0,0-6.94-.41c-2.24.1-4.25.16-3.85-2.87.33-2.59,1.46-4.11,4.66-3.66,9.25,1.29,14.17,7.91,19.12,14.73.94,1.29,2.84,1.89,4.47,2.92.68-3.78,1.54-6.31,1.44-8.81-.08-2-.79-4.85-2.17-5.61-7.31-4-14.92-7.51-23-11.46,5-9.69,9.36-21.25,20.48-28.15,5.35-3.31,10.9-4.83,17.73-1.31-.73-1.68-1-2.35-1-2.19L46.35-141C63.71-128.35,73.48-111,71.56-88ZM2.07-30.44,2-28.92C5.65-26.09,9.26-23.21,13-20.44c6.19,4.63,13.11,6.86,20.57,4.17,3.63-1.31,6.68-4.21,10-6.41-4.75-2.43-8.38-7.79-14.87-5.61C19.93-33.09,10.82-26,2.07-30.44Zm29.38,17L14.39-16.23C19.75-11.43,25.57-10.5,31.45-13.45Z" transform="translate(153.97 154)"/><path class="bdd62068-17bd-4c05-9d44-7147de7568fb" d="M-12,54.82l-3.36-7.5-.91,1.55h-8.56c2.22-6.26,1.44-7.23-4.25-6.28-.68-1.63-1.33-3.2-2-4.76l-4.85,2.1L-38,36.77l12.58-11,4,5.33C-22.81,23-24.09,15.6-25.36,8.17l1.29-.63a68.73,68.73,0,0,0,5.27,5.51c4.29,3.65,8.43,7.64,13.22,10.51,8.21,4.93,18.34,3.4,26-3.12,1.64-1.4,3.17-2.92,5.44-5V43.23l2.84-10c2,2.34,4.19,4.81,5.64,6.49-.84,2.7-1,4.87-2.1,6.38-1.95,2.7-4,6-6.81,7.25-4.2,1.92-6,4-4.1,9.06-4.77-4.1-9.21-2-14-1C5.15,61.79,1.91,59-.2,56.93c-3.66-3.49-5.06-3.7-7.2.2Zm1.76-24.47-1.2.58q4.62,9.36,9.23,18.72l1.09-.52Z" transform="translate(153.97 154)"/><path d="M-46.56,109.15c-1.93-2.07-4.71-3.38-2.54-7.41,1.4-2.62-1.2-3.7-4-3.84-5-.24-9.74-7.26-7.64-11.48.74-1.49,2.77-2.34,4.33-3.58-4.47-7.5,5.7-7.8,8-12.64-1.24-.34-2.82-.3-3.56-1.07-1.34-1.38-3-3.27-3-4.91,0-1.44,2.08-3.79,3.49-4,1.7-.24,5,1,5.29,2.19C-44.8,68.34-42,70-36.63,67c.3-.17.92.25.26,1.07.87,2.09,1.43,4.4,2.7,6.22,2.28,3.26,5,6.25,7.53,9.32,1.57,1.89,2.46,4.77,6.22,3.16.58-.25,3.75,3.29,4.15,5.37.53,2.77-.71,5.9,4.06,5.23.75-.1,1.84.78,2.46,1.49A141.36,141.36,0,0,1,.4,110.31c1.6,2.25,2.06,5.29,3.27,7.86,1.74,3.72,3.69,7.33,6,11.85l-3.24-2.2c-4.72-3.22-9.87-6-14-9.78s-7.56-8.81-11.17-13.36c-.38-.49.25-1.67,0-2.36-.65-1.71-1.55-3.31-2.6-5.5-5.09,3.45-9.33,6.9-14.09,9.37-3.27,1.7-7.25,2-10.92,3Zm8.07-35.85-1.71,1c2.07,7.37,8.92,11.52,13.63,17.55.78-1.8,1.22-3.89.38-4.92C-30.09,82.26-34.35,77.83-38.49,73.3Zm5.58,23.45-8.9-11.2c.19,5,4.8,7.5,6.94,11.41.16.29.72.67.87.59A6.09,6.09,0,0,0-32.91,96.75Z" transform="translate(153.97 154)"/><path class="bdd62068-17bd-4c05-9d44-7147de7568fb" d="M-15.24-102.25q1.13-2.06,2.27-4.11c-7.29,7.48-15.35,13.46-25.66,16.25,18.41-7.8,27.73-23.83,36.88-40l-.17.16,13.54-13.57.37.3-7.71,8.69c7.41-6.71,15.45-11.69,26.07-11.23-15.53,3.06-20.9,15.17-25.78,28-2.26,5.93-6.16,11.31-7.89,17.34C-8.95-80.77-25.76-74-42.26-66.64L-35.34-73l-.85-1.08c-4.84,4-9.67,8-14.54,12-1.12.92-2.37,1.67-3.56,2.5l-1.5-1.52L-47.68-74l-6.79,5.31-.81-1c3.79-3,7.39-6.24,11.42-8.86,7.38-4.79,15.24-8.87,22.43-13.92,3.8-2.67,6.6-6.77,9-11.1l-2.39,1.8Z" transform="translate(153.97 154)"/><path class="bdd62068-17bd-4c05-9d44-7147de7568fb" d="M-67.8,97.08c-5.7-3.24-11.3-6.69-17.13-9.67-8-4.06-16-8-24.24-11.51-3.18-1.36-4.66-3-3.82-6.21.87-3.38,2.07-6.66,6.38-7a7.26,7.26,0,0,0,3-.64c6.18-3.74,11.18-3.73,16.81.79,2.81,2.26,5.72,4.83,7.46,7.9C-74.64,79-70.56,87.56-66.25,96Z" transform="translate(153.97 154)"/><path class="bdd62068-17bd-4c05-9d44-7147de7568fb" d="M-56.72,12.75Q-58.78,4.37-60.81-4l1.42-.35,1.08,6.23c0-8,4-14,9.05-19.53a21,21,0,0,0,5.62-18.39c-1.45-9.13-.81-18,5-25.64a25.56,25.56,0,0,1,7.87-6.24c-6.29,8-10.38,16.36-7.76,27.52.85-4.61,1.56-8.52,2.28-12.42C-38-42-29.47-31.76-34.72-20.21c.21-3.83.37-6.93.54-10l-1.33-.33c.37,9.87-5.31,16.74-10.75,23.87C-50.84-.7-50.6,4-46.51,12.64c-5.71-3.46-6.86-7.39-5.91-20.24-3.61,5-4.19,9.28-2.72,19.83Zm14.38-32.66,1.07.09V-35h-.26Z" transform="translate(153.97 154)"/><path class="bdd62068-17bd-4c05-9d44-7147de7568fb" d="M86.2-80.62Q85-87.17,83.7-93.73l-1.24.24C83.89-87.1,85-80.61,86.84-74.34c2.53,8.6,5.67,17,8.47,25.55a8.9,8.9,0,0,1,.6,4.39c-.67,3-1.83,5.82-2.65,8.31-.26-2.63-.24-5.95-1-9.08a66.41,66.41,0,0,0-3.68-9.78c-1.35-3.22-3-6.31-4.33-9.55-4.59-11.29-7.06-23.38-5.93-35.21,1.77-18.51-6-30.51-21.27-39.09a2.53,2.53,0,0,1-.68-.7,13.35,13.35,0,0,1-.32-2.18c4.7,2.49,9,3.93,12.22,6.64,6.55,5.5,10.44,13,12.47,21.22,2.72,10.91,4.72,22,7,33Z" transform="translate(153.97 154)"/><path class="bdd62068-17bd-4c05-9d44-7147de7568fb" d="M-80.24-6l-2.7-10.9-1.46,5.89-1.17-.26,2.8-14.12-1.61.69-.43-.52a64.64,64.64,0,0,1,4.9-5.4C-71.57-38.06-67.5-47.3-67-58.37-66.58-68-62.75-76-54.7-81.84c-6.51,7.12-10.72,15.13-10.21,26,.74-1.45,1.15-2.11,1.42-2.83.34-.89.57-1.84.93-3,1.7,13.72-4.42,24-13,33.71l6.68-3.74.38.35-7,6.47.9,1,4.38-2.8c-5.37,5.8-10.59,11.62-8.62,20.66Z" transform="translate(153.97 154)"/><path class="bdd62068-17bd-4c05-9d44-7147de7568fb" d="M76.3-24.6c1.22,4.58,2.38,8.9,3.53,13.22l1.3-.23c-2.06-7.12-3.4-14.22.59-21.75v13.52h.83c.2-3.4.41-6.79.61-10.19-.26,9.14,3.11,16.8,8.27,24.15,2.25,3.21,2.89,7.55,4.25,11.38l-1.15.45L93.22,3.27c-.13,2.49-.22,4.2-.36,6.9C92,7.08,91.38,5,90.77,2.86L90.24,3V18.11l-1.08.35c-.58-.95-1.71-1.94-1.66-2.86C88,8.19,84.87,2,81.14-4,77.26-10.26,75.23-16.93,76.3-24.6Z" transform="translate(153.97 154)"/><path class="bdd62068-17bd-4c05-9d44-7147de7568fb" d="M-69.2,5.25c-1-2-2.41-4-2.77-6.1-1.51-8.9-1.43-17.47,6.46-23.93,7.3-6,11.9-13.35,11.66-23.17,4.11,9.06-.49,15.77-5.34,22.82l8.78-9.68a26.14,26.14,0,0,1-8.72,16.92c-3.76,3.41-6.17,8.3-9.8,13.39L-63.76-18C-70.93-14-72.48-7.7-69.2,5.25Z" transform="translate(153.97 154)"/><path class="bdd62068-17bd-4c05-9d44-7147de7568fb" d="M67.39,16.76,68.64,19c3.63-7.3,3-14.3.23-21.34-2.4-6-3.71-12-1.31-18.41C66.33-12.1,69.65-5.11,76.07,2L70.78-9C80,1.52,81.38,10.72,75.12,17.65V5.87c-2.47,8.36-5.23,17.72-7.91,26.78C64.07,29.71,64,26.89,67.39,16.76Z" transform="translate(153.97 154)"/><path class="bdd62068-17bd-4c05-9d44-7147de7568fb" d="M-1.75-130.13a36.17,36.17,0,0,0-3,2.91c-5.45,6.63-10.85,13.3-16.49,19.78C-14.69-120.38-9.08-134,4-143.45L2-139l4.23-3.16L-1.92-130Z" transform="translate(153.97 154)"/><path class="bdd62068-17bd-4c05-9d44-7147de7568fb" d="M58.66,48.67c-9.57,5.66-11.27,5.63-17.26.39.34-2,.67-3.88,1.09-6.36Z" transform="translate(153.97 154)"/><path class="bdd62068-17bd-4c05-9d44-7147de7568fb" d="M-89.94-30c.4-1.52.79-3,1.3-5l-6.85,5-.65-.83c4.73-3.92,9.93-7.41,14.06-11.88s7-9.77,10.85-14.77c-2.12,4.44-3.7,9.25-6.5,13.21-3.58,5.09-8.13,9.48-12.27,14.17Z" transform="translate(153.97 154)"/><path class="bdd62068-17bd-4c05-9d44-7147de7568fb" d="M67.9-75.72,55-82c3.84-.81,6.73-1.94,9.57-1.84,2.17.08,4.29,1.73,6.43,2.69Z" transform="translate(153.97 154)"/><path class="bdd62068-17bd-4c05-9d44-7147de7568fb" d="M-79.24-87.88c4.74-5.21,9.51-10.39,14.22-15.64,1.17-1.31,2.15-2.8,3.22-4.21l1.2,1-19.11,23.6-.87-.51c.5-1.45,1-2.9,1.49-4.35Z" transform="translate(153.97 154)"/><path class="bdd62068-17bd-4c05-9d44-7147de7568fb" d="M-82.92-74.6c-5.6,7.47-4.11,15.54-2.23,23.65C-91-59.09-90.41-66.7-82.92-74.6Z" transform="translate(153.97 154)"/><path class="bdd62068-17bd-4c05-9d44-7147de7568fb" d="M93.24-70.49c4,8.51,8.51,16.87,6.74,26.8Z" transform="translate(153.97 154)"/><path class="bdd62068-17bd-4c05-9d44-7147de7568fb" d="M-89.94-30l-.06-.06,12.44-9.8.54.49L-92.21-24.88l-.77-.59Z" transform="translate(153.97 154)"/><path class="bdd62068-17bd-4c05-9d44-7147de7568fb" d="M-14.79-101.81c-3.73,6.6-9.7,10.47-17.13,14.17l16.68-14.61Z" transform="translate(153.97 154)"/><path d="M-66.09,57c10.85-.92,21.59-2.38,31.91,2Z" transform="translate(153.97 154)"/><path d="M2.07-30.44c8.75,4.42,17.86-2.65,26.59,2.15,6.49-2.18,10.12,3.18,14.86,5.62-3.32,2.19-6.37,5.09-10,6.4-7.46,2.69-14.38.46-20.57-4.17C9.26-23.21,5.65-26.09,2-28.92Z" transform="translate(153.97 154)"/><path d="M31.45-13.45c-5.88,2.95-11.7,2-17.06-2.78Z" transform="translate(153.97 154)"/><path d="M-10.22,30.35-1.1,49.13l-1.09.52q-4.61-9.36-9.23-18.72Z" transform="translate(153.97 154)"/><path class="bdd62068-17bd-4c05-9d44-7147de7568fb" d="M-38.49,73.3c4.14,4.53,8.4,9,12.3,13.68.84,1,.4,3.12-.38,4.92-4.71-6-11.56-10.18-13.63-17.55Z" transform="translate(153.97 154)"/><path class="bdd62068-17bd-4c05-9d44-7147de7568fb" d="M-32.91,96.75a6.09,6.09,0,0,1-1.09.8c-.15.08-.71-.3-.87-.59-2.14-3.91-6.75-6.36-6.94-11.41Z" transform="translate(153.97 154)"/><path d="M-42.34-19.91-41.53-35h.26v15.19Z" transform="translate(153.97 154)"/></svg>